<svg width="16" height="16" xmlns="http://www.w3.org/2000/svg">

 <g>
  <title>background</title>
  <rect fill="#e5af05" id="canvas_background" height="18" width="18" y="-1" x="-1"/>
 </g>
 <g>
  <title>Layer 1</title>
  <path id="svg_1" d="m8.834,0.066c-1.34,-0.153 -2.334,0.982 -2.334,2.184l0,0.5c0,1.329 -0.647,2.124 -1.318,2.614c-0.328,0.24 -0.66,0.403 -0.918,0.508a1.75,1.75 0 0 0 -1.514,-0.872l-1,0a1.75,1.75 0 0 0 -1.75,1.75l0,7.5c0,0.966 0.784,1.75 1.75,1.75l1,0a1.75,1.75 0 0 0 1.662,-1.201c0.525,0.075 1.067,0.229 1.725,0.415c0.152,0.043 0.31,0.088 0.475,0.133c1.154,0.32 2.54,0.653 4.388,0.653c1.706,0 2.97,-0.153 3.722,-1.14c0.353,-0.463 0.537,-1.042 0.668,-1.672c0.118,-0.56 0.208,-1.243 0.313,-2.033l0.04,-0.306c0.25,-1.869 0.265,-3.318 -0.188,-4.316a2.418,2.418 0 0 0 -1.137,-1.2c-0.494,-0.248 -1.065,-0.333 -1.668,-0.333l-1.422,0l0.015,-0.113c0.07,-0.518 0.157,-1.17 0.157,-1.637c0,-0.922 -0.151,-1.719 -0.656,-2.3c-0.51,-0.589 -1.247,-0.797 -2.01,-0.884zm-4.334,13.234c0.705,0.088 1.39,0.284 2.072,0.478l0.441,0.125c1.096,0.305 2.334,0.598 3.987,0.598c1.794,0 2.28,-0.223 2.528,-0.549c0.147,-0.193 0.276,-0.505 0.394,-1.07c0.105,-0.502 0.188,-1.124 0.295,-1.93l0.04,-0.3c0.25,-1.882 0.189,-2.933 -0.068,-3.497a0.922,0.922 0 0 0 -0.442,-0.48c-0.208,-0.104 -0.52,-0.174 -0.997,-0.174l-1.75,0c-0.686,0 -1.295,-0.577 -1.206,-1.336c0.023,-0.192 0.05,-0.39 0.076,-0.586c0.065,-0.488 0.13,-0.97 0.13,-1.328c0,-0.809 -0.144,-1.15 -0.288,-1.316c-0.137,-0.158 -0.402,-0.304 -1.048,-0.378c-0.307,-0.036 -0.664,0.236 -0.664,0.693l0,0.5c0,1.922 -0.978,3.128 -1.933,3.825a5.861,5.861 0 0 1 -1.567,0.81l0,5.915zm-1.75,-6.8a0.25,0.25 0 0 1 0.25,0.25l0,7.5a0.25,0.25 0 0 1 -0.25,0.25l-1,0a0.25,0.25 0 0 1 -0.25,-0.25l0,-7.5a0.25,0.25 0 0 1 0.25,-0.25l1,0z" fill-rule="evenodd"/>
 </g>
</svg>