<svg xmlns="http://www.w3.org/2000/svg" xmlns:xlink="http://www.w3.org/1999/xlink" xmlns:fi="http://pattern.flaticon.com/" x="0" y="0" width="1500" height="750" viewBox="0 0 2100 1050"><rect x="0px" y="0px" width="100%" height="100%" opacity="1" fill="#ffffff"/><defs><g transform="matrix(0.052521221514865706 -0.052521221514865706 0.052521221514865706 0.052521221514865706 108.11344157299708 267.9946978992089)" id="L1_32"><path d="m498.934 245.363c-8.184-4.679-17.916-4.618-26.039.163l-59.967 35.292c-2.024 1.192-3.515 3.041-4.3 5.181h-20.628v-22c0-18.748-15.252-34-34-34h-12.402c31.545-21.203 52.344-57.217 52.344-98 0-65.065-52.935-118-118-118-55.734 0-102.563 38.842-114.849 90.878-16.48-21.206-42.218-34.877-71.093-34.877-49.626 0-90 40.374-90 90 0 28.252 13.089 53.5 33.517 70.012-18.526.261-33.517 15.403-33.517 33.988v200c0 18.748 15.252 34 34 34h115c5.522 0 10-4.477 10-10s-4.478-10-10-10h-115c-7.72 0-14-6.28-14-14v-200c0-7.72 6.28-14 14-14h320c7.72 0 14 6.28 14 14v200c0 7.72-6.28 14-14 14h-115c-5.522 0-10 4.477-10 10s4.478 10 10 10h115c18.748 0 34-15.252 34-34v-22h20.628c.785 2.14 2.275 3.99 4.3 5.181l59.967 35.292c4.109 2.418 8.632 3.629 13.156 3.629 4.419 0 8.84-1.154 12.883-3.466 8.182-4.679 13.066-13.099 13.066-22.523v-192.226c0-9.425-4.885-17.845-13.066-22.524zm-222.992-211.363c54.037 0 98 43.962 98 98s-43.963 98-98 98-98-43.962-98-98 43.963-98 98-98zm-255.942 126c0-38.598 31.402-70 70-70s70 31.402 70 70-31.402 70-70 70-70-31.402-70-70zm126.499 70c12.347-9.985 22.008-23.162 27.718-38.266 9.014 15.293 21.373 28.388 36.069 38.266zm241.501 76h20v116h-20zm104 154.113c0 3.113-2.094 4.646-2.994 5.161-.901.515-3.284 1.542-5.967-.037l-55.039-32.392v-.845-136-.845l55.039-32.392c2.682-1.577 5.067-.552 5.967-.037s2.994 2.048 2.994 5.161z" id="XMLID_217_"/><path d="m306 346c18.748 0 34-15.252 34-34s-15.252-34-34-34-34 15.252-34 34 15.252 34 34 34zm0-48c7.72 0 14 6.28 14 14s-6.28 14-14 14-14-6.28-14-14 6.28-14 14-14z" id="XMLID_1198_"/><path d="m194 478c-2.63 0-5.21 1.07-7.07 2.93s-2.93 4.44-2.93 7.07 1.069 5.21 2.93 7.07 4.44 2.93 7.07 2.93 5.21-1.07 7.069-2.93c1.86-1.86 2.931-4.43 2.931-7.07 0-2.63-1.07-5.21-2.931-7.07-1.859-1.86-4.439-2.93-7.069-2.93z" id="XMLID_1201_"/><path d="m275.942 210c43.01 0 78-34.991 78-78s-34.99-78-78-78-78 34.991-78 78 34.991 78 78 78zm0-136c31.981 0 58 26.019 58 58s-26.019 58-58 58-58-26.019-58-58 26.019-58 58-58z" id="XMLID_1508_"/><path d="m275.939 114.67c2.63 0 5.21-1.07 7.07-2.93s2.93-4.44 2.93-7.07c0-2.64-1.069-5.21-2.93-7.07-1.86-1.87-4.43-2.93-7.07-2.93-2.63 0-5.21 1.06-7.069 2.93-1.86 1.85-2.931 4.43-2.931 7.07 0 2.63 1.07 5.21 2.931 7.07 1.859 1.86 4.44 2.93 7.069 2.93z" id="XMLID_1509_"/><path d="m275.939 169.33c2.63 0 5.21-1.06 7.07-2.93 1.86-1.86 2.93-4.44 2.93-7.07s-1.069-5.21-2.93-7.07-4.43-2.93-7.07-2.93c-2.63 0-5.21 1.07-7.069 2.93-1.86 1.86-2.931 4.44-2.931 7.07 0 2.64 1.07 5.21 2.931 7.07 1.859 1.87 4.44 2.93 7.069 2.93z" id="XMLID_1511_"/><path d="m303.279 142c2.631 0 5.2-1.07 7.07-2.93 1.86-1.86 2.93-4.44 2.93-7.07s-1.069-5.21-2.93-7.07c-1.859-1.86-4.439-2.93-7.07-2.93-2.64 0-5.21 1.07-7.069 2.93-1.87 1.86-2.931 4.44-2.931 7.07s1.061 5.21 2.931 7.07c1.859 1.86 4.43 2.93 7.069 2.93z" id="XMLID_1513_"/><path d="m248.609 142c2.631 0 5.21-1.07 7.07-2.93s2.93-4.44 2.93-7.07-1.069-5.21-2.93-7.07c-1.86-1.86-4.439-2.93-7.07-2.93-2.63 0-5.21 1.07-7.069 2.93-1.86 1.86-2.931 4.44-2.931 7.07s1.07 5.21 2.931 7.07c1.859 1.86 4.439 2.93 7.069 2.93z" id="XMLID_1514_"/><path d="m90 206c25.364 0 46-20.636 46-46s-20.636-46-46-46-46 20.636-46 46 20.636 46 46 46zm0-72c14.337 0 26 11.664 26 26s-11.663 26-26 26-26-11.664-26-26 11.663-26 26-26z" id="XMLID_1517_"/><path d="m248 440v-96c0-5.523-4.478-10-10-10h-174c-5.522 0-10 4.477-10 10v96c0 5.523 4.478 10 10 10h174c5.522 0 10-4.477 10-10zm-20-10h-154v-76h154z" id="XMLID_1993_"/><path d="m272 432c0 5.523 4.478 10 10 10h48c5.522 0 10-4.477 10-10v-48c0-5.523-4.478-10-10-10h-48c-5.522 0-10 4.477-10 10zm20-38h28v28h-28z" id="XMLID_1996_"/></g><g transform="matrix(0.05226176024707658 -0.05226176024707658 0.05226176024707658 0.05226176024707658 115.24676202044087 160.95252150669694)" id="L1_33"><path d="M500.94,191.81H31.606c-5.888,0-10.667,4.779-10.667,10.667v256c0,29.397,23.915,53.333,53.333,53.333h384    c29.419,0,53.333-23.936,53.333-53.333v-256C511.606,196.588,506.828,191.81,500.94,191.81z M490.273,458.476    c0,17.643-14.357,32-32,32h-384c-17.643,0-32-14.357-32-32V213.143h448V458.476z"/><path d="M511.265,93.1L493.11,24.215C488.929,7.468,471.82-3.049,454.86,0.791L25.078,102.764    c-8.448,1.92-15.595,7.061-20.139,14.443c-4.544,7.381-5.888,16.085-3.755,24.533l20.096,79.445    c1.195,4.821,5.547,8.043,10.325,8.043c0.853,0,1.728-0.085,2.645-0.32c5.696-1.429,9.152-7.232,7.701-12.949l-1.173-4.629    l462.528-105.088c2.816-0.661,5.269-2.411,6.763-4.885C511.585,98.882,511.99,95.895,511.265,93.1z M35.553,190.636l-13.696-54.08    c-0.704-2.816-0.235-5.717,1.259-8.192c1.515-2.453,3.904-4.16,6.805-4.843L459.702,21.57c0.768-0.192,1.557-0.277,2.325-0.277    c4.779,0,9.195,3.285,10.411,8.213l15.381,58.347L35.553,190.636z"/><path d="M121.718,192.919c-5.291-2.581-11.648-0.491-14.336,4.779l-42.667,85.333c-2.624,5.269-0.491,11.669,4.779,14.315    c1.557,0.768,3.179,1.131,4.779,1.131c3.904,0,7.68-2.155,9.557-5.909l42.667-85.333    C129.121,201.964,126.987,195.564,121.718,192.919z"/><path d="M228.364,192.919c-5.269-2.581-11.669-0.491-14.315,4.779l-42.667,85.333c-2.624,5.269-0.491,11.669,4.779,14.315    c1.557,0.768,3.179,1.131,4.779,1.131c3.904,0,7.68-2.155,9.536-5.909l42.667-85.333    C235.766,201.964,233.633,195.564,228.364,192.919z"/><path d="M335.03,192.919c-5.248-2.581-11.648-0.491-14.315,4.779l-42.667,85.333c-2.624,5.269-0.491,11.669,4.779,14.315    c1.557,0.768,3.179,1.131,4.779,1.131c3.904,0,7.68-2.155,9.536-5.909l42.667-85.333    C342.433,201.964,340.299,195.564,335.03,192.919z"/><path d="M441.697,192.919c-5.291-2.581-11.648-0.491-14.315,4.779l-42.667,85.333c-2.624,5.269-0.491,11.669,4.779,14.315    c1.557,0.768,3.179,1.131,4.779,1.131c3.904,0,7.68-2.155,9.536-5.909l42.667-85.333    C449.099,201.964,446.966,195.564,441.697,192.919z"/><path d="M500.94,277.143H31.606c-5.888,0-10.667,4.779-10.667,10.667s4.779,10.667,10.667,10.667H500.94    c5.909,0,10.667-4.779,10.667-10.667S506.828,277.143,500.94,277.143z"/><path d="M134.753,173.186L61.281,99.714c-4.16-4.16-10.923-4.16-15.083,0c-4.16,4.16-4.16,10.923,0,15.083l73.472,73.493    c2.091,2.069,4.821,3.115,7.552,3.115c2.731,0,5.461-1.045,7.531-3.136C138.913,184.108,138.913,177.346,134.753,173.186z"/><path d="M239.115,149.484L165.58,76.012c-4.16-4.16-10.923-4.16-15.083,0c-4.16,4.16-4.16,10.923,0,15.083l73.515,73.472    c2.091,2.069,4.821,3.115,7.552,3.115c2.731,0,5.461-1.045,7.552-3.115C243.276,160.407,243.276,153.644,239.115,149.484z"/><path d="M343.393,125.783L269.985,52.29c-4.16-4.16-10.923-4.16-15.083,0c-4.16,4.16-4.16,10.923,0,15.083l73.408,73.493    c2.091,2.069,4.821,3.115,7.552,3.115s5.461-1.024,7.531-3.115C347.553,136.706,347.553,129.943,343.393,125.783z"/><path d="M447.628,102.103L374.198,28.61c-4.16-4.16-10.923-4.16-15.083,0c-4.16,4.16-4.16,10.923,0,15.083l73.429,73.493    c2.091,2.069,4.821,3.115,7.552,3.115s5.461-1.045,7.531-3.115C451.788,113.026,451.788,106.263,447.628,102.103z"/></g><g transform="matrix(0.06581220385099582 -0.06581220385099582 0.06581220385099582 0.06581220385099582 313.46048810588695 171.99735069274902)" id="L1_34"><path d="M419.736,133.051c-1.266-7.231-5.732-13.503-12.152-17.064c-5.938-3.65-13.242-4.307-19.736-1.776  c0-0.512,0.152-1,0.152-1.52c0.113-13.139-10.446-23.883-23.586-23.997c-2.924-0.025-5.828,0.489-8.566,1.517  c0-0.512,0.152-1,0.152-1.52c0-13.255-10.745-24-24-24c0-13.255-10.745-24-24-24c-0.52,0-1.008,0.12-1.52,0.152  c2.151-5.487,2.012-11.608-0.384-16.992c-3.442-8.278-11.094-14.045-20-15.072c-7.371-0.634-14.619,2.192-19.616,7.648  c-4.493-12.442-18.221-18.886-30.663-14.394C226.28,5.477,219.945,14.552,220,24.691c0.022-13.233-10.687-23.978-23.919-24.001  c-8.25-0.014-15.927,4.218-20.321,11.201c-5.229-3.061-11.444-3.965-17.328-2.52c-9.182,2.267-16.216,9.654-18.032,18.936  c-1.358,7.404,0.868,15.014,6,20.52c-7.605,0.498-14.516,4.597-18.6,11.032c-5.919-3.468-13.064-4.155-19.536-1.88  c-6.901,2.382-12.352,7.763-14.824,14.632c-2.01,5.515-1.896,11.581,0.32,17.016C83.305,92.419,76.024,101.878,76,112.699  c0,0.52,0.12,1.008,0.152,1.52c-6.476-2.523-13.759-1.875-19.688,1.752c-6.439,3.559-10.921,9.842-12.192,17.088  c-1.462,9.574,2.999,19.084,11.296,24.08L60,160.707h28v31.32h280v-31.336h36l-1.12-1.12  C414.336,156.185,421.533,144.861,419.736,133.051z" fill="#fdb62f"/><path d="M112,464.027L42.536,189.675c-4.63-20.053,7.872-40.062,27.925-44.693  c2.751-0.635,5.564-0.956,8.387-0.955H79.2c18.752-0.003,34.585,13.928,36.968,32.528L160,464.027H112z" fill="#de0418"/><path d="M160,464.027l-42.616-277.992c-2.62-20.413,11.804-39.085,32.217-41.705  c1.576-0.202,3.163-0.304,4.751-0.303h1.328c20.211-0.002,36.74,16.107,37.256,36.312L208,464.027H160z" fill="#fce9cc"/><path d="M192.984,182.251L208,464.027h48l13.992-280.8c1.069-20.553-14.725-38.08-35.278-39.15  c-0.638-0.033-1.276-0.05-1.914-0.05h-2.536c-20.58-0.016-37.277,16.655-37.292,37.236  C192.971,181.592,192.976,181.922,192.984,182.251L192.984,182.251z" fill="#de0418"/><path d="M270.184,179.387L256,464.027h48l41.392-277.064c3.133-20.341-10.817-39.369-31.158-42.502  c-1.878-0.289-3.774-0.434-5.674-0.434h-1.16C287.559,144.027,271.198,159.572,270.184,179.387z" fill="#fce9cc"/><path d="M384,144.027c20.58,0,37.264,16.684,37.264,37.264c0,3.122-0.392,6.232-1.168,9.256L352,464.027h-48  l43.136-288.4C349.934,157.435,365.594,144.011,384,144.027z" fill="#de0418"/><g><path d="M128,264.027h208v96H128V264.027z" fill="#fdb62f"/><path d="M72,24.027C72.052,10.817,61.384,0.065,48.174,0.014c-8.86-0.035-17.013,4.831-21.19,12.645   C25.997,12.497,25,12.399,24,12.363c-13.255,0-24,10.745-24,24s10.745,24,24,24c1.116-0.034,2.228-0.146,3.328-0.336   c6.501,11.49,21.086,15.534,32.576,9.033c11.49-6.501,15.534-21.086,9.033-32.576c-0.087-0.153-0.175-0.305-0.265-0.456   C70.828,32.394,71.977,28.252,72,24.027z" fill="#fdb62f"/><path d="M464,40.027c0.052-13.211-10.616-23.962-23.826-24.013c-8.86-0.035-17.013,4.831-21.19,12.645   c-0.987-0.162-1.984-0.26-2.984-0.296c-13.255,0-24,10.745-24,24s10.745,24,24,24c1.116-0.034,2.228-0.146,3.328-0.336   c6.501,11.49,21.086,15.534,32.576,9.033s15.534-21.086,9.033-32.576c-0.087-0.153-0.175-0.305-0.265-0.457   C462.828,48.394,463.977,44.252,464,40.027z" fill="#fdb62f"/></g></g><g transform="matrix(0.055283220401618 -0.055283220401618 0.055283220401618 0.055283220401618 -22.305008845628414 33)" id="L1_35"><path d="m409.253 444.747c-4.445-27.598-28.421-48.747-57.253-48.747h-45.372v-134.45c17.634-12.568 28.372-33.138 28.372-54.994v-55.064c0-29.995-19.674-55.471-46.792-64.231 9.105-8.559 14.807-20.697 14.807-34.149v-6.223c.001-25.855-21.034-46.889-46.888-46.889s-46.889 21.034-46.889 46.889v6.223c0 13.419 5.675 25.531 14.741 34.086-27.215 8.702-46.979 34.229-46.979 64.294v55.064c0 21.856 10.738 42.426 28.372 54.994v134.45h-45.372c-28.832 0-52.808 21.149-57.253 48.747-27.598 4.445-48.747 28.421-48.747 57.253 0 5.523 4.477 10 10 10h384c5.523 0 10-4.477 10-10 0-28.832-21.149-52.808-48.747-57.253zm-180.015-397.858c0-14.827 12.062-26.889 26.889-26.889s26.889 12.062 26.889 26.889v6.223c0 14.827-12.062 26.889-26.889 26.889s-26.889-12.062-26.889-26.889zm-8.801 200.615c-14.457-8.492-23.437-24.182-23.437-40.948v-55.064c0-26.187 21.305-47.492 47.492-47.492h1.508v20.5c0 5.523 4.477 10 10 10s10-4.477 10-10v-20.5h1.508c26.187 0 47.492 21.305 47.492 47.492v55.064c0 16.766-8.98 32.457-23.437 40.949-3.058 1.796-4.935 5.077-4.935 8.623v139.872h-61.257v-139.873c.001-3.546-1.877-6.826-4.934-8.623zm-145.102 244.496c4.4-16.118 19.171-28 36.665-28h99.127c5.523 0 10-4.477 10-10s-4.477-10-10-10h-87.782c4.402-16.116 19.163-28 36.655-28h192c17.492 0 32.253 11.884 36.655 28h-87.528c-5.523 0-10 4.477-10 10s4.477 10 10 10h98.873c17.494 0 32.265 11.882 36.665 28z" id="XMLID_1998_"/><path d="m367 83h7v7c0 5.523 4.477 10 10 10s10-4.477 10-10v-7h7c5.523 0 10-4.477 10-10s-4.477-10-10-10h-7v-7c0-5.523-4.477-10-10-10s-10 4.477-10 10v7h-7c-5.523 0-10 4.477-10 10s4.477 10 10 10z" id="XMLID_2020_"/><path d="m95 266.127h7v7c0 5.523 4.477 10 10 10s10-4.477 10-10v-7h7c5.523 0 10-4.477 10-10s-4.477-10-10-10h-7v-7c0-5.523-4.477-10-10-10s-10 4.477-10 10v7h-7c-5.523 0-10 4.477-10 10s4.477 10 10 10z" id="XMLID_2021_"/><path d="m256.13 444c-2.63 0-5.21 1.07-7.07 2.93-1.87 1.86-2.93 4.44-2.93 7.07s1.06 5.21 2.93 7.07c1.86 1.86 4.44 2.93 7.07 2.93s5.21-1.07 7.07-2.93 2.93-4.44 2.93-7.07-1.07-5.21-2.93-7.07-4.44-2.93-7.07-2.93z" id="XMLID_2023_"/></g><g transform="matrix(0.06457139009412298 -0.06457139009412298 0.06457139009412298 0.06457139009412298 217.93943301301996 271.99998474121094)" id="L1_36"><path d="m75 512c-3.835938 0-7.675781-1.464844-10.605469-4.394531-5.859375-5.859375-5.859375-15.351563 0-21.210938l30-30c5.859375-5.859375 15.351563-5.859375 21.210938 0s5.859375 15.351563 0 21.210938l-30 30c-2.929688 2.929687-6.765625 4.394531-10.605469 4.394531zm0 0" fill="#465a61"/><path d="m437 512c-3.835938 0-7.675781-1.464844-10.605469-4.394531l-30-30c-5.859375-5.859375-5.859375-15.351563 0-21.210938s15.351563-5.859375 21.210938 0l30 30c5.859375 5.859375 5.859375 15.351563 0 21.210938-2.929688 2.929687-6.765625 4.394531-10.605469 4.394531zm0 0" fill="#3b4a51"/><path d="m326.5 25.5-90 90c-2.699219 3-6.601562 4.5-10.5 4.5s-7.800781-1.5-10.5-4.5l-90-90c-6-5.699219-6-15.300781 0-21 5.699219-6 15.300781-6 21 0l79.5 79.199219s0 0 .300781-.300781l79.199219-78.898438c5.699219-6 15.296875-6 21 0 6 5.699219 6 15.300781 0 21zm0 0" fill="#465a61"/><path d="m236.5 115.5c-2.699219 3-6.601562 4.5-10.5 4.5v-36.300781s0 0 .300781-.300781l79.199219-78.898438c5.699219-6 15.296875-6 21 0 6 5.699219 6 15.300781 0 21zm0 0" fill="#3b4a51"/><path d="m467 90h-422c-24.902344 0-45 20.097656-45 45v302c0 24.898438 20.097656 45 45 45h422c24.902344 0 45-20.101562 45-45v-302c0-24.902344-20.097656-45-45-45zm0 0" fill="#e63950"/><path d="m512 135v302c0 24.898438-20.097656 45-45 45h-241v-392h241c24.902344 0 45 20.097656 45 45zm0 0" fill="#cc2e43"/><path d="m317 150h-212c-24.902344 0-45 20.097656-45 45v182c0 24.898438 20.097656 45 45 45h212c24.902344 0 45-20.101562 45-45v-182c0-24.902344-20.097656-45-45-45zm0 0" fill="#c6e2e7"/><path d="m422 225c-16.539062 0-30-13.460938-30-30s13.460938-30 30-30 30 13.460938 30 30-13.460938 30-30 30zm0 0" fill="#c6e2e7"/><g fill="#465a61"><path d="m437 285h-30c-8.289062 0-15-6.707031-15-15 0-8.289062 6.710938-15 15-15h30c8.292969 0 15 6.710938 15 15 0 8.292969-6.707031 15-15 15zm0 0"/><path d="m437 347h-30c-8.289062 0-15-6.707031-15-15 0-8.289062 6.710938-15 15-15h30c8.292969 0 15 6.710938 15 15 0 8.292969-6.707031 15-15 15zm0 0"/><path d="m437 407h-30c-8.289062 0-15-6.707031-15-15 0-8.289062 6.710938-15 15-15h30c8.292969 0 15 6.710938 15 15 0 8.292969-6.707031 15-15 15zm0 0"/></g><path d="m362 195v182c0 24.898438-20.097656 45-45 45h-91v-272h91c24.902344 0 45 20.097656 45 45zm0 0" fill="#a8d3d8"/></g><g transform="matrix(0.13585779521710775 -0.13585779521710775 0.13585779521710775 0.13585779521710775 104.2426618819025 29.000000447034836)" id="L1_37"><circle cx="186" cy="122" r="86" fill="#d2ddff"/><g fill="#4c241d"><circle cx="250" cy="254" r="4"/><circle cx="170" cy="62" r="4"/><path d="m120.652 65.348c-1.023 0-2.047-.391-2.828-1.172-1.562-1.562-1.562-4.094 0-5.656l14.695-14.695c1.562-1.562 4.094-1.562 5.656 0s1.562 4.094 0 5.656l-14.695 14.695c-.781.781-1.804 1.172-2.828 1.172z"/><path d="m135.348 65.348c-1.023 0-2.047-.391-2.828-1.172l-14.696-14.696c-1.562-1.562-1.562-4.094 0-5.656s4.094-1.562 5.656 0l14.695 14.695c1.562 1.562 1.562 4.094 0 5.656-.78.782-1.804 1.173-2.827 1.173z"/></g><g><path d="m260 216h-228v-109.265c0-5.929 4.806-10.735 10.735-10.735h206.531c5.929 0 10.735 4.806 10.735 10.735v109.265z" fill="#9dc1e4"/><path d="m260 220h-228c-2.211 0-4-1.789-4-4v-109.266c0-8.125 6.609-14.734 14.734-14.734h206.531c8.126 0 14.735 6.609 14.735 14.734v109.266c0 2.211-1.789 4-4 4zm-224-8h220v-105.266c0-3.715-3.02-6.734-6.734-6.734h-206.532c-3.714 0-6.734 3.02-6.734 6.734z" fill="#4c241d"/></g><g><path d="m249.265 240h-206.53c-5.929 0-10.735-4.806-10.735-10.735v-13.265h228v13.265c0 5.929-4.806 10.735-10.735 10.735z" fill="#6b4f5b"/><path d="m249.266 244h-206.532c-8.125 0-14.734-6.609-14.734-14.734v-13.266c0-2.211 1.789-4 4-4h228c2.211 0 4 1.789 4 4v13.266c0 8.125-6.609 14.734-14.734 14.734zm-213.266-24v9.266c0 3.715 3.02 6.734 6.734 6.734h206.531c3.715 0 6.734-3.02 6.734-6.734v-9.266z" fill="#4c241d"/></g><path d="m172 232h-48c-2.211 0-4-1.789-4-4s1.789-4 4-4h48c2.211 0 4 1.789 4 4s-1.789 4-4 4z" fill="#4c241d"/><g><path d="m168 260h-40l8-20h24z" fill="#b5a19c"/><path d="m168 264h-40c-1.328 0-2.566-.66-3.312-1.758-.742-1.098-.895-2.496-.402-3.727l8-20c.609-1.52 2.078-2.516 3.715-2.516h24c1.637 0 3.105.996 3.715 2.516l8 20c.492 1.23.34 2.629-.402 3.727-.748 1.098-1.986 1.758-3.314 1.758zm-34.094-8h28.188l-4.801-12h-18.586z" fill="#4c241d"/></g><path d="m208 264h-120c-2.211 0-4-1.789-4-4s1.789-4 4-4h120c2.211 0 4 1.789 4 4s-1.789 4-4 4z" fill="#4c241d"/><path d="m234.004 64c-.012 0-.023 0-.031 0-3.742-.008-7.254-1.473-9.891-4.121-2.641-2.648-4.09-6.168-4.082-9.906.008-3.742 1.473-7.254 4.121-9.891 2.641-2.633 6.148-4.082 9.875-4.082h.031c3.742.008 7.254 1.473 9.891 4.121 2.641 2.648 4.09 6.168 4.082 9.906-.008 3.742-1.473 7.254-4.121 9.891-2.641 2.633-6.149 4.082-9.875 4.082zm-.008-20c-1.598 0-3.098.621-4.23 1.75-1.137 1.129-1.762 2.637-1.766 4.238s.617 3.109 1.75 4.246c1.129 1.137 2.637 1.762 4.238 1.766h.016c1.598 0 3.098-.621 4.23-1.75 1.137-1.129 1.762-2.637 1.766-4.238s-.617-3.109-1.75-4.246c-1.129-1.137-2.637-1.762-4.238-1.766-.004 0-.008 0-.016 0z" fill="#4c241d"/><g><path d="m136 200h-16v-84l16 4z" fill="#f53e28"/><path d="m136 204h-16c-2.211 0-4-1.789-4-4v-84c0-1.23.566-2.395 1.539-3.152s2.238-1.031 3.43-.727l16 4c1.781.445 3.031 2.043 3.031 3.879v80c0 2.211-1.789 4-4 4zm-12-8h8v-72.875l-8-2z" fill="#4c241d"/></g><g><path d="m176 200h-16v-80l16-4z" fill="#f53e28"/><path d="m176 204h-16c-2.211 0-4-1.789-4-4v-80c0-1.836 1.25-3.434 3.031-3.879l16-4c1.188-.312 2.453-.035 3.43.727.973.757 1.539 1.922 1.539 3.152v84c0 2.211-1.789 4-4 4zm-12-8h8v-74.875l-8 2z" fill="#4c241d"/></g><g><path d="m176 200h-20l-36-84 20 4z" fill="#e66353"/><path d="m176 204h-20c-1.602 0-3.047-.953-3.676-2.426l-36-84c-.586-1.363-.367-2.941.57-4.094.934-1.152 2.438-1.707 3.891-1.402l20 4c1.266.254 2.332 1.102 2.863 2.281l36 80c.555 1.238.449 2.672-.289 3.812s-2.004 1.829-3.359 1.829zm-17.363-8h11.176l-32.617-72.48-10.523-2.105z" fill="#4c241d"/></g><path d="m46 126c-1.023 0-2.047-.391-2.828-1.172-1.562-1.562-1.562-4.094 0-5.656l14-14c1.562-1.562 4.094-1.562 5.656 0s1.562 4.094 0 5.656l-14 14c-.781.781-1.805 1.172-2.828 1.172z" fill="#ffffff"/><path d="m48 140c-1.023 0-2.047-.391-2.828-1.172-1.562-1.562-1.562-4.094 0-5.656l28-28c1.562-1.562 4.094-1.562 5.656 0s1.562 4.094 0 5.656l-28 28c-.781.781-1.805 1.172-2.828 1.172z" fill="#ffffff"/></g></defs><g fi:class="KUsePattern"><pattern id="pattern_L1_32" width="350" height="350" patternUnits="userSpaceOnUse"><use xlink:href="#L1_32" x="-350" y="-350"/><use xlink:href="#L1_32" x="0" y="-350"/><use xlink:href="#L1_32" x="350" y="-350"/><use xlink:href="#L1_32" x="-350" y="0"/><use xlink:href="#L1_32" x="0" y="0"/><use xlink:href="#L1_32" x="350" y="0"/><use xlink:href="#L1_32" x="-350" y="350"/><use xlink:href="#L1_32" x="0" y="350"/><use xlink:href="#L1_32" x="350" y="350"/></pattern><rect x="0" y="0" width="100%" height="100%" fill="url(#pattern_L1_32)"/></g><g fi:class="KUsePattern"><pattern id="pattern_L1_33" width="350" height="350" patternUnits="userSpaceOnUse"><use xlink:href="#L1_33" x="-350" y="-350"/><use xlink:href="#L1_33" x="0" y="-350"/><use xlink:href="#L1_33" x="350" y="-350"/><use xlink:href="#L1_33" x="-350" y="0"/><use xlink:href="#L1_33" x="0" y="0"/><use xlink:href="#L1_33" x="350" y="0"/><use xlink:href="#L1_33" x="-350" y="350"/><use xlink:href="#L1_33" x="0" y="350"/><use xlink:href="#L1_33" x="350" y="350"/></pattern><rect x="0" y="0" width="100%" height="100%" fill="url(#pattern_L1_33)"/></g><g fi:class="KUsePattern"><pattern id="pattern_L1_34" width="350" height="350" patternUnits="userSpaceOnUse"><use xlink:href="#L1_34" x="-350" y="-350"/><use xlink:href="#L1_34" x="0" y="-350"/><use xlink:href="#L1_34" x="350" y="-350"/><use xlink:href="#L1_34" x="-350" y="0"/><use xlink:href="#L1_34" x="0" y="0"/><use xlink:href="#L1_34" x="350" y="0"/><use xlink:href="#L1_34" x="-350" y="350"/><use xlink:href="#L1_34" x="0" y="350"/><use xlink:href="#L1_34" x="350" y="350"/></pattern><rect x="0" y="0" width="100%" height="100%" fill="url(#pattern_L1_34)"/></g><g fi:class="KUsePattern"><pattern id="pattern_L1_35" width="350" height="350" patternUnits="userSpaceOnUse"><use xlink:href="#L1_35" x="-350" y="-350"/><use xlink:href="#L1_35" x="0" y="-350"/><use xlink:href="#L1_35" x="350" y="-350"/><use xlink:href="#L1_35" x="-350" y="0"/><use xlink:href="#L1_35" x="0" y="0"/><use xlink:href="#L1_35" x="350" y="0"/><use xlink:href="#L1_35" x="-350" y="350"/><use xlink:href="#L1_35" x="0" y="350"/><use xlink:href="#L1_35" x="350" y="350"/></pattern><rect x="0" y="0" width="100%" height="100%" fill="url(#pattern_L1_35)"/></g><g fi:class="KUsePattern"><pattern id="pattern_L1_36" width="350" height="350" patternUnits="userSpaceOnUse"><use xlink:href="#L1_36" x="-350" y="-350"/><use xlink:href="#L1_36" x="0" y="-350"/><use xlink:href="#L1_36" x="350" y="-350"/><use xlink:href="#L1_36" x="-350" y="0"/><use xlink:href="#L1_36" x="0" y="0"/><use xlink:href="#L1_36" x="350" y="0"/><use xlink:href="#L1_36" x="-350" y="350"/><use xlink:href="#L1_36" x="0" y="350"/><use xlink:href="#L1_36" x="350" y="350"/></pattern><rect x="0" y="0" width="100%" height="100%" fill="url(#pattern_L1_36)"/></g><g fi:class="KUsePattern"><pattern id="pattern_L1_37" width="350" height="350" patternUnits="userSpaceOnUse"><use xlink:href="#L1_37" x="-350" y="-350"/><use xlink:href="#L1_37" x="0" y="-350"/><use xlink:href="#L1_37" x="350" y="-350"/><use xlink:href="#L1_37" x="-350" y="0"/><use xlink:href="#L1_37" x="0" y="0"/><use xlink:href="#L1_37" x="350" y="0"/><use xlink:href="#L1_37" x="-350" y="350"/><use xlink:href="#L1_37" x="0" y="350"/><use xlink:href="#L1_37" x="350" y="350"/></pattern><rect x="0" y="0" width="100%" height="100%" fill="url(#pattern_L1_37)"/></g></svg>